<?xml version="1.0" encoding="UTF-8"?>
<svg width="115px" height="51px" viewBox="0 0 115 51" version="1.1" xmlns="http://www.w3.org/2000/svg" xmlns:xlink="http://www.w3.org/1999/xlink">
    <title>WATT</title>
    <defs>
        <polygon id="path-1" points="0.0881 0.1015 38.573 0.1015 38.573 42.6065199 0.0881 42.6065199"></polygon>
    </defs>
    <g id="Symbols" stroke="none" stroke-width="1" fill="none" fill-rule="evenodd">
        <g id="Logo-écowatt" transform="translate(-100.000000, 0.000000)">
            <g id="WATT" transform="translate(100.908584, 0.000214)">
                <g id="Group-3" transform="translate(74.091416, 7.719786)">
                    <mask id="mask-2" fill="white">
                        <use xlink:href="#path-1"></use>
                    </mask>
                    <g id="Clip-2"></g>
                    <path d="M19.0531,7.6825 C19.1161,7.6795 19.1811,7.6775 19.2451,7.6775 L20.9911,7.6775 L20.9911,4.0365 L20.9911,4.0415 C21.0371,1.8525 22.8241,0.1015 25.0141,0.1015 C27.2031,0.1015 28.9911,1.8525 29.0371,4.0415 L29.0371,7.6825 L35.1721,7.6825 C37.0501,7.6825 38.5731,9.2055 38.5731,11.0835 C38.5731,12.9625 37.0501,14.4845 35.1721,14.4845 L29.0371,14.4845 L29.0371,32.7745 C29.0561,33.5185 29.3701,34.2245 29.9121,34.7355 C30.4531,35.2455 31.1761,35.5195 31.9201,35.4945 C33.2431,35.4105 34.5031,36.0685 35.1901,37.2025 C35.8761,38.3355 35.8761,39.7575 35.1901,40.8905 C34.5031,42.0245 33.2431,42.6825 31.9201,42.5995 C25.1571,42.5995 20.9911,38.2915 20.9911,32.3215 L20.9911,14.4795 L19.6101,14.4795 C19.5461,14.4825 19.4831,14.4845 19.4181,14.4845 L11.9231,14.4845 L11.9231,32.7745 C11.9421,33.5195 12.2571,34.2255 12.7991,34.7355 C13.3411,35.2465 14.0641,35.5195 14.8081,35.4945 C16.1311,35.4105 17.3911,36.0685 18.0771,37.2025 C18.7651,38.3355 18.7651,39.7575 18.0771,40.8905 C17.3911,42.0245 16.1311,42.6825 14.8081,42.5995 C8.0451,42.5995 3.8771,38.2915 3.8771,32.3215 L3.8771,14.4795 L3.4901,14.4795 C1.6111,14.4795 0.0881,12.9565 0.0881,11.0785 C0.0881,9.2005 1.6111,7.6775 3.4901,7.6775 L3.8751,7.6775 L3.8751,4.0365 L3.8771,4.0415 C3.9231,1.8525 5.7111,0.1015 7.9011,0.1015 C10.0901,0.1015 11.8771,1.8525 11.9231,4.0415 L11.9231,7.6825 L19.0531,7.6825 Z" id="Fill-1" fill="#FFFFFF" mask="url(#mask-2)"></path>
                </g>
                <path d="M20.9150156,30.8915864 L16.2070156,47.3665864 C15.7000156,49.0595864 14.1730156,50.2435864 12.4060156,50.3115864 C10.6400156,50.3795864 9.02401556,49.3165864 8.38901556,47.6665864 L0.381015557,27.4205864 C0.152015557,26.8425864 0.023015557,26.2285864 2.06057393e-13,25.6075864 C-0.002984443,24.5215864 0.428015557,23.4805864 1.19601556,22.7145864 C1.96501556,21.9485864 3.00801556,21.5205864 4.09301556,21.5265864 C5.81801556,21.4845864 7.37701556,22.5485864 7.96601556,24.1715864 L11.8810156,36.0295864 L16.9680156,17.7415864 C17.4730156,16.0345864 19.0170156,14.8465864 20.7960156,14.7945864 C22.5740156,14.7435864 24.1850156,15.8405864 24.7870156,17.5155864 L29.8740156,36.0235864 L41.6200156,2.64858642 C42.2260156,1.00658642 43.8180156,-0.0604135838 45.5670156,0.00458641622 C46.6400156,-0.0474135838 47.6860156,0.344586416 48.4600156,1.08758642 C49.2340156,1.83058642 49.6690156,2.86058642 49.661124,3.93358642 C49.6340156,4.48258642 49.5060156,5.02058642 49.2810156,5.52158642 L33.3620156,47.7365864 C32.8000156,49.3335864 31.2600156,50.3775864 29.5670156,50.3065864 C27.7700156,50.2985864 26.1800156,49.1415864 25.6200156,47.4335864 L20.9150156,30.8915864 Z" id="Fill-11" fill="#FFFFFF"></path>
                <path d="M65.5869156,37.0936864 L65.5859156,37.0936864 C65.5859156,41.3236864 61.8659156,43.8936864 57.8419156,43.8936864 C53.5919156,43.8936864 51.5439156,42.1566864 51.5439156,39.2846864 C51.5439156,36.5636864 53.3659156,34.9776864 56.7049156,34.9776864 L65.5869156,34.9776864 L65.5869156,37.0936864 Z M58.6809156,14.3346864 C52.1419156,14.3346864 48.3479156,16.8276864 46.2229156,19.1716864 C45.5959156,19.8516864 45.2429156,20.7396864 45.2329156,21.6636864 C45.2329156,22.6096864 45.6089156,23.5166864 46.2789156,24.1836864 C46.9489156,24.8516864 47.8579156,25.2256864 48.8029156,25.2226864 C49.6259156,25.2386864 50.4299156,24.9716864 51.0789156,24.4666864 L51.0879156,24.4716864 C53.2329156,22.7016864 55.9009156,21.6926864 58.6809156,21.5996864 C63.0829156,21.5996864 65.5869156,23.8666864 65.5869156,27.2696864 L65.5869156,28.6296864 L55.6449156,28.6296864 C49.0409156,28.6296864 43.3469156,32.2566864 43.3469156,39.2846864 C43.3469156,46.0846864 48.2789156,50.6956864 55.7209156,50.6956864 C60.2739156,50.6956864 63.6129156,49.5626864 65.6639156,46.3126864 C65.7099156,48.5016864 67.4979156,50.2516864 69.6879156,50.2516864 C71.8759156,50.2516864 73.6639156,48.5016864 73.7099156,46.3126864 L73.7099156,26.9546864 C73.7099156,18.9446864 68.0939156,14.3346864 58.6809156,14.3346864 L58.6809156,14.3346864 Z" id="Fill-13" fill="#FFFFFF"></path>
            </g>
        </g>
    </g>
</svg>